<svg width="2265" height="586" viewBox="0 0 2265 586" fill="none" xmlns="http://www.w3.org/2000/svg">
<g clip-path="url(#clip0)">
<path d="M154.58 338.776C70.858 338.776 3 328.57 3 315.998V414.049C3 509.237 70.858 586.405 154.58 586.405C238.285 586.405 306.151 509.237 306.151 414.049V315.998C306.151 328.57 238.277 338.776 154.58 338.776Z" fill="#12669D"/>
<path d="M154.58 0C70.858 0 3 77.159 3 172.356V315.998C3 328.57 70.858 338.776 154.58 338.776C238.285 338.776 306.151 328.579 306.151 315.998V172.356C306.143 77.159 238.277 0 154.58 0Z" fill="#4FA2D9"/>
<path d="M286.443 240.846C286.504 244.834 285.867 248.797 284.567 252.502C283.267 256.207 281.331 259.58 278.872 262.426C276.413 265.271 273.481 267.531 270.246 269.073C267.01 270.616 263.537 271.411 260.029 271.411C256.521 271.411 253.048 270.616 249.813 269.073C246.577 267.531 243.645 265.271 241.186 262.426C238.727 259.58 236.791 256.207 235.491 252.502C234.192 248.797 233.554 244.834 233.615 240.846V173.902C233.615 165.937 236.398 158.297 241.352 152.665C246.305 147.032 253.024 143.868 260.029 143.868C267.035 143.868 273.753 147.032 278.707 152.665C283.66 158.297 286.443 165.937 286.443 173.902V240.846Z" fill="#6AB1E0"/>
<path d="M454.875 440.32C470.695 440.32 480.07 430.75 480.07 414.148V343.836H537.102C594.133 343.836 634.172 305.75 634.172 249.5C634.172 193.25 595.305 155.164 539.25 155.164H454.875C439.25 155.164 429.68 164.93 429.68 181.336V414.148C429.68 430.75 439.25 440.32 454.875 440.32ZM480.07 303.211V196.375H525.969C562.102 196.375 583 215.711 583 249.5C583 283.68 561.906 303.211 525.773 303.211H480.07ZM690.422 440.906C705.07 440.906 714.836 431.336 714.836 415.32V315.711C714.836 290.516 725.383 273.133 753.117 272.938C762.688 272.742 769.914 270.594 774.602 266.492C779.484 262.586 781.828 256.922 781.828 249.305C781.828 241.297 779.484 235.438 774.992 231.727C771.281 228.406 765.422 226.453 757.805 226.453C737.102 226.453 719.133 242.078 713.469 266.297H712.492V250.477C712.492 235.242 702.922 225.867 689.445 225.867C675.578 225.867 666.203 235.242 666.203 250.477V415.32C666.203 431.336 675.773 440.906 690.422 440.906ZM833.781 437H971.086C984.953 437 994.133 428.797 994.133 415.711C994.133 402.625 984.953 394.422 971.086 394.422H858.977V313.953H965.227C978.312 313.953 986.906 306.141 986.906 293.836C986.906 281.531 978.117 273.914 965.227 273.914H858.977V197.742H971.086C984.953 197.742 994.133 189.539 994.133 176.453C994.133 163.367 984.953 155.164 971.086 155.164H833.781C818.156 155.164 808.586 164.93 808.586 181.336V410.828C808.586 427.234 818.156 437 833.781 437ZM1059.95 440.32C1075.77 440.32 1085.15 430.75 1085.15 414.148V343.836H1142.18C1199.21 343.836 1239.25 305.75 1239.25 249.5C1239.25 193.25 1200.38 155.164 1144.33 155.164H1059.95C1044.33 155.164 1034.76 164.93 1034.76 181.336V414.148C1034.76 430.75 1044.33 440.32 1059.95 440.32ZM1085.15 303.211V196.375H1131.05C1167.18 196.375 1188.08 215.711 1188.08 249.5C1188.08 283.68 1166.98 303.211 1130.85 303.211H1085.15Z" fill="#1B1B1B"/>
<path d="M1375.19 439.734C1385.34 439.734 1391.59 433.289 1391.59 422.742V219.812H1392.96L1476.55 420.203C1480.85 430.359 1487.49 435.047 1497.65 435.047C1507.8 435.047 1514.25 430.359 1518.74 419.812L1602.34 219.812H1603.7V422.742C1603.7 433.289 1609.95 439.734 1620.11 439.734C1630.27 439.734 1636.52 433.289 1636.52 422.742V174.305C1636.52 161.023 1627.73 152.43 1614.45 152.43C1602.34 152.43 1594.72 158.289 1589.25 171.18L1498.43 390.32H1496.87L1405.85 171.18C1400.38 158.094 1393.16 152.43 1381.24 152.43C1367.77 152.43 1358.78 161.219 1358.78 174.305V422.742C1358.78 433.289 1365.03 439.734 1375.19 439.734ZM1739.25 440.516C1766.59 440.516 1792.57 425.281 1804.68 402.039H1805.46V423.328C1805.46 433.484 1812.1 440.516 1821.67 440.516C1831.05 440.516 1837.69 433.484 1837.69 423.328V296.57C1837.69 256.141 1807.61 230.359 1759.95 230.359C1726.95 230.359 1697.26 245.008 1685.73 267.273C1683 272.156 1681.63 277.039 1681.63 281.336C1681.63 290.516 1687.88 296.57 1696.67 296.57C1703.12 296.57 1707.61 294.031 1710.73 288.367C1722.06 268.25 1737.1 260.242 1759.17 260.242C1787.3 260.242 1803.7 275.086 1803.7 299.891V316.883L1745.3 320.203C1698.43 322.938 1671.67 344.812 1671.67 379.578C1671.67 416.102 1698.82 440.516 1739.25 440.516ZM1746.87 411.609C1722.45 411.609 1706.24 398.914 1706.24 379.578C1706.24 360.438 1721.87 348.328 1749.21 346.57L1803.7 343.25V359.852C1803.7 389.148 1778.9 411.609 1746.87 411.609ZM1897.84 508.68C1907.8 508.68 1914.84 501.258 1914.84 490.516V403.992H1915.62C1927.73 426.258 1951.16 440.516 1980.27 440.516C2031.44 440.516 2066.4 399.109 2066.4 335.438C2066.4 271.766 2031.24 230.359 1979.48 230.359C1949.99 230.359 1926.36 245.398 1913.86 268.25H1913.08V247.547C1913.08 237.391 1906.44 230.359 1897.06 230.359C1887.49 230.359 1880.85 237.391 1880.85 247.547V490.516C1880.85 501.258 1887.88 508.68 1897.84 508.68ZM1972.84 410.633C1938.08 410.633 1914.64 380.75 1914.64 335.438C1914.64 290.32 1938.08 260.242 1972.84 260.242C2008.98 260.242 2031.63 289.539 2031.63 335.438C2031.63 381.531 2008.98 410.633 1972.84 410.633ZM2171.28 440.516C2219.52 440.516 2252.14 416.102 2252.14 379.773C2252.14 349.891 2236.52 335.047 2194.13 324.695L2163.86 317.273C2141.59 311.805 2130.66 302.039 2130.66 287.977C2130.66 270.594 2147.65 258.289 2172.06 258.289C2192.77 258.289 2205.85 265.711 2214.64 282.703C2218.35 289.734 2223.04 291.883 2229.68 291.883C2237.88 291.883 2242.96 286.609 2242.96 278.602C2242.96 277.039 2242.77 275.477 2242.38 273.523C2237.1 249.109 2207.41 230.359 2174.02 230.359C2128.12 230.359 2097.06 254.383 2097.06 289.734C2097.06 318.25 2116.01 336.805 2155.27 346.57L2186.32 354.383C2209.17 360.047 2217.57 367.859 2217.57 382.508C2217.57 401.453 2199.99 412.781 2174.02 412.781C2148.04 412.781 2135.93 404.773 2125.77 387C2121.87 379.969 2116.98 376.844 2110.93 376.844C2102.14 376.844 2095.5 381.922 2095.5 390.906C2095.5 393.445 2095.89 395.984 2097.06 398.914C2106.83 424.305 2135.15 440.516 2171.28 440.516Z" fill="#252525"/>
<path d="M454.875 440.32C470.695 440.32 480.07 430.75 480.07 414.148V343.836H537.102C594.133 343.836 634.172 305.75 634.172 249.5C634.172 193.25 595.305 155.164 539.25 155.164H454.875C439.25 155.164 429.68 164.93 429.68 181.336V414.148C429.68 430.75 439.25 440.32 454.875 440.32ZM480.07 303.211V196.375H525.969C562.102 196.375 583 215.711 583 249.5C583 283.68 561.906 303.211 525.773 303.211H480.07ZM690.422 440.906C705.07 440.906 714.836 431.336 714.836 415.32V315.711C714.836 290.516 725.383 273.133 753.117 272.938C762.688 272.742 769.914 270.594 774.602 266.492C779.484 262.586 781.828 256.922 781.828 249.305C781.828 241.297 779.484 235.438 774.992 231.727C771.281 228.406 765.422 226.453 757.805 226.453C737.102 226.453 719.133 242.078 713.469 266.297H712.492V250.477C712.492 235.242 702.922 225.867 689.445 225.867C675.578 225.867 666.203 235.242 666.203 250.477V415.32C666.203 431.336 675.773 440.906 690.422 440.906ZM833.781 437H971.086C984.953 437 994.133 428.797 994.133 415.711C994.133 402.625 984.953 394.422 971.086 394.422H858.977V313.953H965.227C978.312 313.953 986.906 306.141 986.906 293.836C986.906 281.531 978.117 273.914 965.227 273.914H858.977V197.742H971.086C984.953 197.742 994.133 189.539 994.133 176.453C994.133 163.367 984.953 155.164 971.086 155.164H833.781C818.156 155.164 808.586 164.93 808.586 181.336V410.828C808.586 427.234 818.156 437 833.781 437ZM1059.95 440.32C1075.77 440.32 1085.15 430.75 1085.15 414.148V343.836H1142.18C1199.21 343.836 1239.25 305.75 1239.25 249.5C1239.25 193.25 1200.38 155.164 1144.33 155.164H1059.95C1044.33 155.164 1034.76 164.93 1034.76 181.336V414.148C1034.76 430.75 1044.33 440.32 1059.95 440.32ZM1085.15 303.211V196.375H1131.05C1167.18 196.375 1188.08 215.711 1188.08 249.5C1188.08 283.68 1166.98 303.211 1130.85 303.211H1085.15Z" fill="url(#paint0_linear)"/>
</g>
<defs>
<linearGradient id="paint0_linear" x1="404.875" y1="294.5" x2="1251.88" y2="294.5" gradientUnits="userSpaceOnUse">
<stop stop-color="#12669D"/>
<stop offset="1" stop-color="#4FA2D9"/>
</linearGradient>
<clipPath id="clip0">
<rect width="2265" height="586" fill="white"/>
</clipPath>
</defs>
</svg>
