<svg width="27" height="27" viewBox="0 0 27 27" fill="none" xmlns="http://www.w3.org/2000/svg">
<circle cx="13.5" cy="13.5" r="9.5" stroke="#4FA2D9" stroke-width="2"/>
<path d="M14.4844 19H12.502V11.6035H14.4844V19ZM12.3857 9.68945C12.3857 9.39323 12.4837 9.14941 12.6797 8.95801C12.8802 8.7666 13.1514 8.6709 13.4932 8.6709C13.8304 8.6709 14.0993 8.7666 14.2998 8.95801C14.5003 9.14941 14.6006 9.39323 14.6006 9.68945C14.6006 9.99023 14.498 10.2363 14.293 10.4277C14.0924 10.6191 13.8258 10.7148 13.4932 10.7148C13.1605 10.7148 12.8916 10.6191 12.6865 10.4277C12.486 10.2363 12.3857 9.99023 12.3857 9.68945Z" fill="#4FA2D9"/>
</svg>
