<svg width="435" height="842" viewBox="0 0 435 842" fill="none" xmlns="http://www.w3.org/2000/svg">
<g clip-path="url(#clip0)">
<path d="M217.852 485.295C98.7345 485.295 2.1875 470.704 2.1875 452.733V592.9C2.1875 728.975 98.7345 839.29 217.852 839.29C336.947 839.29 433.505 728.975 433.505 592.9V452.733C433.505 470.704 336.935 485.295 217.852 485.295Z" fill="#12669D"/>
<path d="M217.852 1C98.7345 1 2.1875 111.302 2.1875 247.39V452.733C2.1875 470.704 98.7345 485.295 217.852 485.295C336.947 485.295 433.505 470.718 433.505 452.733V247.39C433.494 111.302 336.935 1 217.852 1Z" fill="#4FA2D9"/>
<path d="M405.465 345.299C405.552 351.001 404.644 356.665 402.795 361.962C400.946 367.258 398.191 372.081 394.693 376.148C391.195 380.216 387.022 383.446 382.419 385.652C377.816 387.857 372.875 388.993 367.883 388.993C362.892 388.993 357.951 387.857 353.348 385.652C348.745 383.446 344.572 380.216 341.074 376.148C337.575 372.081 334.821 367.258 332.972 361.962C331.122 356.665 330.215 351.001 330.302 345.299V249.601C330.302 238.213 334.262 227.293 341.309 219.241C348.357 211.189 357.916 206.665 367.883 206.665C377.851 206.665 387.409 211.189 394.457 219.241C401.505 227.293 405.465 238.213 405.465 249.601V345.299Z" fill="#6AB1E0"/>
</g>
<defs>
<clipPath id="clip0">
<rect width="435" height="842" fill="white"/>
</clipPath>
</defs>
</svg>
